<svg width="20" height="20" viewBox="0 0 20 20" fill="none" xmlns="http://www.w3.org/2000/svg">
<g clip-path="url(#clip0_1395_223)">
<path d="M0 0H6.66563V20H0V0Z" fill="#007A5E"/>
<path d="M6.66406 0H13.3328V20H6.66406V0Z" fill="#CE1126"/>
<path d="M13.3359 0H20.0016V20H13.3359V0Z" fill="#FCD116"/>
<path d="M10.0009 7.62964L9.44531 9.88149L10.2898 10.2667L10.0009 7.62964Z" fill="#FCD116"/>
<path d="M9.99913 7.62964L10.5547 9.88149L9.71024 10.2667L9.99913 7.62964Z" fill="#FCD116"/>
<path d="M11.7062 9.19656L9.91886 9.35103L9.84959 10.4488L11.7062 9.19656Z" fill="#FCD116"/>
<path d="M11.7234 9.23063L10.2157 10.6521L9.72136 9.82397L11.7234 9.23063Z" fill="#FCD116"/>
<path d="M11.0179 11.9024L10.5317 9.65398L9.64651 10.0555L11.0179 11.9024Z" fill="#FCD116"/>
<path d="M11.029 11.8882L9.5942 10.5696L10.1508 9.55788L11.029 11.8882Z" fill="#FCD116"/>
<path d="M8.96713 11.8882L10.4019 10.5696L9.84529 9.55788L8.96713 11.8882Z" fill="#FCD116"/>
<path d="M8.97818 11.9024L9.46439 9.65398L10.3496 10.0555L8.97818 11.9024Z" fill="#FCD116"/>
<path d="M8.27656 9.23063L9.78427 10.6521L10.2786 9.82397L8.27656 9.23063Z" fill="#FCD116"/>
<path d="M8.29376 9.19656L10.0811 9.35103L10.1504 10.4488L8.29376 9.19656Z" fill="#FCD116"/>
</g>
<defs>
<clipPath id="clip0_1395_223">
<rect width="20" height="20" fill="white"/>
</clipPath>
</defs>
</svg>
