<svg width="36" height="36" viewBox="0 0 36 36" fill="none" xmlns="http://www.w3.org/2000/svg">
<path fill-rule="evenodd" clip-rule="evenodd" d="M27.1601 0.900024C32.2187 0.900024 35.5 4.18127 35.5 9.23988V27.5602C35.5 32.6188 32.2187 35.9 27.1601 35.9H8.83986C3.78125 35.9 0.5 32.6188 0.5 27.5602V9.23988C0.5 4.18127 3.78125 0.900024 8.83986 0.900024H27.1601Z" fill="white"/>
<path fill-rule="evenodd" clip-rule="evenodd" d="M27.1601 0.900024C32.2187 0.900024 35.5 4.18127 35.5 9.23988V27.5602C35.5 32.6188 32.2187 35.9 27.1601 35.9H8.83986C3.78125 35.9 0.5 32.6188 0.5 27.5602V9.23988C0.5 4.18127 3.78125 0.900024 8.83986 0.900024H27.1601Z" fill="#E6F6F4"/>
<path fill-rule="evenodd" clip-rule="evenodd" d="M14.6571 7.37142C11.8285 8.34104 9.41818 10.4617 8.07566 13.1453C7.60736 14.0712 7.27017 15.0533 7.06411 16.0729C6.55209 18.6002 6.90801 21.2963 8.06942 23.5984C8.82499 25.0997 9.91147 26.4384 11.2228 27.4831C12.4654 28.4715 13.9078 29.2097 15.4439 29.6163C17.3796 30.1355 19.4402 30.123 21.3884 29.6788C23.1492 29.2722 24.8165 28.4277 26.1465 27.2016C27.5514 25.9067 28.5568 24.2052 29.0875 22.3723C29.6681 20.3768 29.7431 18.2436 29.3811 16.1918C25.7406 16.1918 22.094 16.1918 18.4536 16.1918C18.4536 17.7056 18.4536 19.2195 18.4536 20.7333C20.5641 20.7333 22.6747 20.7333 24.7852 20.7333C24.5417 22.1846 23.68 23.5108 22.4624 24.3303C21.6943 24.8495 20.8139 25.1811 19.9023 25.3437C18.9906 25.5001 18.0415 25.5189 17.1298 25.3374C16.1994 25.1498 15.319 24.7619 14.5447 24.2177C13.3083 23.3482 12.3655 22.0783 11.8847 20.6458C11.3914 19.1882 11.3851 17.568 11.8847 16.1167C12.2343 15.0908 12.8088 14.1462 13.5706 13.3705C14.5072 12.4072 15.7249 11.719 17.0424 11.4375C18.1663 11.1998 19.3528 11.2436 20.4518 11.5752C21.3884 11.8567 22.2501 12.3759 22.9557 13.0515C23.6675 12.3384 24.3794 11.6252 25.0912 10.9121C25.4659 10.5305 25.8593 10.1614 26.2214 9.76729C25.1412 8.76641 23.8673 7.95942 22.4811 7.44647C19.9834 6.52066 17.1735 6.50188 14.6571 7.37142Z" fill="white"/>
<path fill-rule="evenodd" clip-rule="evenodd" d="M14.6556 7.37148C17.1658 6.50193 19.982 6.52071 22.4797 7.44028C23.8659 7.95323 25.1335 8.75395 26.2199 9.7611C25.8578 10.1552 25.4644 10.5243 25.0897 10.9059C24.3779 11.619 23.666 12.3321 22.9542 13.0453C22.2486 12.3697 21.3869 11.8567 20.4503 11.569C19.3513 11.2374 18.1649 11.1874 17.0409 11.4313C15.7297 11.7128 14.512 12.4009 13.5691 13.3643C12.8074 14.1338 12.2329 15.0846 11.8832 16.1105C10.6156 15.1221 9.34804 14.14 8.07422 13.1516C9.41673 10.4617 11.827 8.34109 14.6556 7.37148Z" fill="#EA4335"/>
<path fill-rule="evenodd" clip-rule="evenodd" d="M7.06378 16.0667C7.26984 15.0533 7.60703 14.0649 8.07536 13.1391C9.34292 14.1275 10.6105 15.1096 11.8843 16.098C11.3848 17.5555 11.3848 19.1757 11.8843 20.627C10.6167 21.6154 9.34919 22.6038 8.08161 23.5859C6.90768 21.2901 6.55176 18.594 7.06378 16.0667Z" fill="#FBBC05"/>
<path fill-rule="evenodd" clip-rule="evenodd" d="M18.4437 16.1855C22.0841 16.1855 25.7307 16.1855 29.3713 16.1855C29.7332 18.2311 29.6521 20.3643 29.0776 22.3661C28.5469 24.1989 27.5416 25.9005 26.1366 27.1954C24.9065 26.2383 23.6764 25.2812 22.4463 24.3241C23.6639 23.5046 24.5256 22.1784 24.7691 20.7271C22.6586 20.7271 20.548 20.7271 18.4375 20.7271C18.4437 19.2133 18.4437 17.6994 18.4437 16.1855Z" fill="#4285F4"/>
<path fill-rule="evenodd" clip-rule="evenodd" d="M8.07422 23.5921C9.3418 22.61 10.6094 21.6216 11.8769 20.6332C12.364 22.0658 13.3006 23.3356 14.537 24.2052C15.3113 24.7494 16.198 25.1373 17.1221 25.3249C18.0338 25.5126 18.9766 25.4876 19.8945 25.3312C20.8062 25.1685 21.6867 24.837 22.4547 24.3178C23.6848 25.2749 24.9149 26.232 26.145 27.1891C24.815 28.4214 23.1478 29.2597 21.3869 29.6663C19.4387 30.1104 17.3781 30.123 15.4424 29.6038C13.9063 29.1972 12.4639 28.4652 11.2213 27.4706C9.91627 26.4322 8.82978 25.0935 8.07422 23.5921Z" fill="#34A853"/>
</svg>
